<mxfile host="app.diagrams.net" agent="Mozilla/5.0 (Windows NT 10.0; Win64; x64) AppleWebKit/537.36 (KHTML, like Gecko) Chrome/129.0.0.0 Safari/537.36" version="24.7.17">
  <diagram name="Сторінка-1" id="vGHtLG9IXZ7SzxFFTiic">
    <mxGraphModel grid="1" page="1" gridSize="10" guides="1" tooltips="1" connect="1" arrows="1" fold="1" pageScale="1" pageWidth="827" pageHeight="1169" math="0" shadow="0">
      <root>
        <mxCell id="0" />
        <mxCell id="1" parent="0" />
        <mxCell id="wx-Tk_PnlE26EjSDrc8P-3" style="edgeStyle=orthogonalEdgeStyle;rounded=0;orthogonalLoop=1;jettySize=auto;html=1;entryX=0.5;entryY=0;entryDx=0;entryDy=0;" edge="1" parent="1" source="wx-Tk_PnlE26EjSDrc8P-1" target="wx-Tk_PnlE26EjSDrc8P-2">
          <mxGeometry relative="1" as="geometry" />
        </mxCell>
        <mxCell id="wx-Tk_PnlE26EjSDrc8P-1" value="Початок програми" style="ellipse;whiteSpace=wrap;html=1;" vertex="1" parent="1">
          <mxGeometry x="344" y="30" width="140" height="40" as="geometry" />
        </mxCell>
        <mxCell id="wx-Tk_PnlE26EjSDrc8P-9" value="" style="edgeStyle=orthogonalEdgeStyle;rounded=0;orthogonalLoop=1;jettySize=auto;html=1;" edge="1" parent="1" source="wx-Tk_PnlE26EjSDrc8P-2" target="wx-Tk_PnlE26EjSDrc8P-8">
          <mxGeometry relative="1" as="geometry" />
        </mxCell>
        <mxCell id="wx-Tk_PnlE26EjSDrc8P-2" value="Вводимо значення для m i n" style="shape=parallelogram;perimeter=parallelogramPerimeter;whiteSpace=wrap;html=1;fixedSize=1;" vertex="1" parent="1">
          <mxGeometry x="319" y="100" width="190" height="60" as="geometry" />
        </mxCell>
        <mxCell id="wx-Tk_PnlE26EjSDrc8P-11" value="" style="edgeStyle=orthogonalEdgeStyle;rounded=0;orthogonalLoop=1;jettySize=auto;html=1;" edge="1" parent="1" source="wx-Tk_PnlE26EjSDrc8P-8" target="wx-Tk_PnlE26EjSDrc8P-10">
          <mxGeometry relative="1" as="geometry" />
        </mxCell>
        <mxCell id="wx-Tk_PnlE26EjSDrc8P-8" value="Виводимо n * m" style="shape=parallelogram;perimeter=parallelogramPerimeter;whiteSpace=wrap;html=1;fixedSize=1;" vertex="1" parent="1">
          <mxGeometry x="354" y="190" width="120" height="60" as="geometry" />
        </mxCell>
        <mxCell id="wx-Tk_PnlE26EjSDrc8P-13" value="" style="edgeStyle=orthogonalEdgeStyle;rounded=0;orthogonalLoop=1;jettySize=auto;html=1;" edge="1" parent="1" source="wx-Tk_PnlE26EjSDrc8P-10" target="wx-Tk_PnlE26EjSDrc8P-12">
          <mxGeometry relative="1" as="geometry" />
        </mxCell>
        <mxCell id="wx-Tk_PnlE26EjSDrc8P-10" value="n + 1" style="whiteSpace=wrap;html=1;" vertex="1" parent="1">
          <mxGeometry x="354" y="290" width="120" height="60" as="geometry" />
        </mxCell>
        <mxCell id="wx-Tk_PnlE26EjSDrc8P-15" value="" style="edgeStyle=orthogonalEdgeStyle;rounded=0;orthogonalLoop=1;jettySize=auto;html=1;" edge="1" parent="1" source="wx-Tk_PnlE26EjSDrc8P-12" target="wx-Tk_PnlE26EjSDrc8P-14">
          <mxGeometry relative="1" as="geometry" />
        </mxCell>
        <mxCell id="wx-Tk_PnlE26EjSDrc8P-12" value="Виводимо чи n &amp;lt; m" style="shape=parallelogram;perimeter=parallelogramPerimeter;whiteSpace=wrap;html=1;fixedSize=1;" vertex="1" parent="1">
          <mxGeometry x="341" y="380" width="146" height="60" as="geometry" />
        </mxCell>
        <mxCell id="wx-Tk_PnlE26EjSDrc8P-17" value="" style="edgeStyle=orthogonalEdgeStyle;rounded=0;orthogonalLoop=1;jettySize=auto;html=1;" edge="1" parent="1" source="wx-Tk_PnlE26EjSDrc8P-14" target="wx-Tk_PnlE26EjSDrc8P-16">
          <mxGeometry relative="1" as="geometry" />
        </mxCell>
        <mxCell id="wx-Tk_PnlE26EjSDrc8P-14" value="n + 1" style="whiteSpace=wrap;html=1;" vertex="1" parent="1">
          <mxGeometry x="354" y="480" width="120" height="60" as="geometry" />
        </mxCell>
        <mxCell id="wx-Tk_PnlE26EjSDrc8P-19" value="" style="edgeStyle=orthogonalEdgeStyle;rounded=0;orthogonalLoop=1;jettySize=auto;html=1;" edge="1" parent="1" source="wx-Tk_PnlE26EjSDrc8P-16" target="wx-Tk_PnlE26EjSDrc8P-18">
          <mxGeometry relative="1" as="geometry" />
        </mxCell>
        <mxCell id="wx-Tk_PnlE26EjSDrc8P-16" value="Виводимо чи m &amp;gt; m" style="shape=parallelogram;perimeter=parallelogramPerimeter;whiteSpace=wrap;html=1;fixedSize=1;" vertex="1" parent="1">
          <mxGeometry x="354" y="580" width="120" height="60" as="geometry" />
        </mxCell>
        <mxCell id="wx-Tk_PnlE26EjSDrc8P-21" value="" style="edgeStyle=orthogonalEdgeStyle;rounded=0;orthogonalLoop=1;jettySize=auto;html=1;" edge="1" parent="1" source="wx-Tk_PnlE26EjSDrc8P-18" target="wx-Tk_PnlE26EjSDrc8P-20">
          <mxGeometry relative="1" as="geometry" />
        </mxCell>
        <mxCell id="wx-Tk_PnlE26EjSDrc8P-18" value="m - 1" style="whiteSpace=wrap;html=1;" vertex="1" parent="1">
          <mxGeometry x="354" y="680" width="120" height="60" as="geometry" />
        </mxCell>
        <mxCell id="wx-Tk_PnlE26EjSDrc8P-20" value="Завершення програми" style="ellipse;whiteSpace=wrap;html=1;" vertex="1" parent="1">
          <mxGeometry x="356" y="780" width="116" height="40" as="geometry" />
        </mxCell>
      </root>
    </mxGraphModel>
  </diagram>
</mxfile>
